<?xml version="1.0" encoding="UTF-8"?>
<svg xmlns="http://www.w3.org/2000/svg" viewBox="-5.0 -40.0 239.0 140.0">
  <g id="Cut" stroke="#000" stroke-width="0.2" fill="none">
    <line x1="0.0" y1="0.0" x2="0.0" y2="60.0"/>
    <line x1="10.0" y1="-2.679491924311227" x2="10.0" y2="62.67949192431123"/>
    <line x1="0.0" y1="0.0" x2="10.0" y2="-2.679491924311227"/>
    <line x1="0.0" y1="60.0" x2="10.0" y2="62.67949192431123"/>
    <line x1="229.0" y1="0.0" x2="229.0" y2="60.0"/>
    <line x1="140.0" y1="0.0" x2="229.0" y2="0.0"/>
    <line x1="140.0" y1="60.0" x2="229.0" y2="60.0"/>
    <line x1="30.0" y1="0.0" x2="30.0" y2="-20.0"/>
    <line x1="120.0" y1="0.0" x2="120.0" y2="-20.0"/>
    <line x1="30.0" y1="-20.0" x2="120.0" y2="-20.0"/>
    <line x1="63.0" y1="-35.0" x2="75.0" y2="-35.0"/>
    <line x1="75.0" y1="-35.0" x2="87.0" y2="-35.0"/>
    <line x1="30.0" y1="-20.0" x2="63.0" y2="-35.0"/>
    <line x1="120.0" y1="-20.0" x2="87.0" y2="-35.0"/>
    <line x1="30.0" y1="60.0" x2="30.0" y2="80.0"/>
    <line x1="120.0" y1="60.0" x2="120.0" y2="80.0"/>
    <line x1="30.0" y1="80.0" x2="120.0" y2="80.0"/>
    <line x1="63.0" y1="95.0" x2="75.0" y2="95.0"/>
    <line x1="75.0" y1="95.0" x2="87.0" y2="95.0"/>
    <line x1="30.0" y1="80.0" x2="63.0" y2="95.0"/>
    <line x1="120.0" y1="80.0" x2="87.0" y2="95.0"/>
    <line x1="10.0" y1="0.0" x2="10.0" y2="-8.0"/>
    <line x1="30.0" y1="0.0" x2="30.0" y2="-8.0"/>
    <line x1="10.0" y1="-8.0" x2="30.0" y2="-8.0"/>
    <line x1="120.0" y1="0.0" x2="120.0" y2="-8.0"/>
    <line x1="140.0" y1="0.0" x2="140.0" y2="-8.0"/>
    <line x1="120.0" y1="-8.0" x2="140.0" y2="-8.0"/>
    <line x1="10.0" y1="60.0" x2="10.0" y2="68.0"/>
    <line x1="30.0" y1="60.0" x2="30.0" y2="68.0"/>
    <line x1="10.0" y1="68.0" x2="30.0" y2="68.0"/>
    <line x1="120.0" y1="60.0" x2="120.0" y2="68.0"/>
    <line x1="140.0" y1="60.0" x2="140.0" y2="68.0"/>
    <line x1="120.0" y1="68.0" x2="140.0" y2="68.0"/>
  </g>
  <g id="Crease" stroke="red" stroke-width="0.2" fill="none">
    <line x1="10.0" y1="0.0" x2="10.0" y2="60.0"/>
    <line x1="30.0" y1="0.0" x2="30.0" y2="60.0"/>
    <line x1="120.0" y1="0.0" x2="120.0" y2="60.0"/>
    <line x1="140.0" y1="0.0" x2="140.0" y2="60.0"/>
    <line x1="10.0" y1="0.0" x2="30.0" y2="0.0"/>
    <line x1="10.0" y1="60.0" x2="30.0" y2="60.0"/>
    <line x1="120.0" y1="0.0" x2="140.0" y2="0.0"/>
    <line x1="120.0" y1="60.0" x2="140.0" y2="60.0"/>
    <line x1="30.0" y1="-1.0" x2="120.0" y2="-1.0"/>
    <line x1="30.0" y1="61.0" x2="120.0" y2="61.0"/>
    <line x1="30.0" y1="0.0" x2="120.0" y2="0.0"/>
    <line x1="30.0" y1="60.0" x2="120.0" y2="60.0"/>
  </g>
</svg>
